<svg width="22" height="24" viewBox="0 0 22 24" fill="none" xmlns="http://www.w3.org/2000/svg">
<path d="M21.1744 4.45848L11.3543 0.0939753C11.2148 0.0320145 11.0639 0 10.9113 0C10.7587 0 10.6077 0.0320145 10.4683 0.0939753L0.648129 4.45848C0.455198 4.54419 0.291274 4.68404 0.176233 4.86105C0.0611915 5.03807 -2.67858e-05 5.24466 8.79202e-09 5.45577V6.21956C0.00110693 9.81882 0.96419 13.3524 2.78955 16.4544C4.61491 19.5565 7.2362 22.1143 10.3821 23.8631C10.544 23.9529 10.7261 24 10.9113 24C11.0964 24 11.2785 23.9529 11.4405 23.8631C14.5863 22.1143 17.2076 19.5565 19.033 16.4544C20.8583 13.3524 21.8214 9.81882 21.8225 6.21956V5.45577C21.8226 5.24466 21.7613 5.03807 21.6463 4.86105C21.5313 4.68404 21.3673 4.54419 21.1744 4.45848ZM19.6403 6.21956C19.6393 9.32583 18.835 12.379 17.3055 15.0827C15.776 17.7863 13.5733 20.0483 10.9113 21.6492C8.24927 20.0483 6.04654 17.7863 4.51702 15.0827C2.98751 12.379 2.18321 9.32583 2.18225 6.21956V6.165L10.9113 2.28496L19.6403 6.165V6.21956ZM9.82014 9.82028H12.0024V18.5493H9.82014V9.82028ZM9.82014 5.45577H12.0024V7.63803H9.82014V5.45577Z" fill="#2F9C95"/>
</svg>
